<svg width="66" height="67" viewBox="0 0 66 67" fill="none" xmlns="http://www.w3.org/2000/svg">
<path fill-rule="evenodd" clip-rule="evenodd" d="M52.903 33.3137C51.8516 33.3137 51.3259 33.8631 51.3259 34.924V60.0266H39.0282V49.9856C39.0282 48.9057 38.5025 48.11 37.4698 48.11H28.7957C27.7443 48.11 26.7116 48.9057 26.7116 49.9856V60.0266H14.658V35.966C14.658 34.6398 13.8694 34.1283 13.0621 34.1283C12.0107 34.1283 11.2221 34.6398 11.2221 35.966V62.1296C11.2221 62.9253 12.0107 63.721 13.0621 63.721H28.7957C29.5842 63.721 30.1099 62.9253 30.1099 62.1296V51.558H35.6298V62.1296C35.6298 62.9253 36.3996 63.721 37.4698 63.721H52.9218C53.9732 63.721 54.7618 62.9253 54.7618 62.1296V34.9051C54.7618 33.8441 53.9732 33.2947 52.9218 33.2947L52.903 33.3137ZM62.347 34.6398C51.0631 22.4958 44.2477 15.1071 34.0152 4.27039C33.7711 4.00516 33.4895 3.72098 32.9638 3.72098C32.4381 3.72098 32.1752 3.98621 31.6495 4.27039L3.63691 34.3746C3.37406 34.6209 3.11121 35.1514 3.11121 35.7008C3.11121 36.2502 3.35528 36.4775 3.63691 36.7617C4.40669 37.8227 5.45811 37.8227 6.00259 36.7617L32.9825 8.21103L59.9813 37.2922C60.2254 37.5385 60.507 37.8227 61.0327 37.8227C61.5584 37.8227 62.0841 37.5574 62.347 37.2922C63.1167 36.4965 63.1167 35.1703 62.347 34.6398Z" fill="#2C514E"/>
</svg>
