<svg width="66" height="67" viewBox="0 0 66 67" fill="none" xmlns="http://www.w3.org/2000/svg">
<path fill-rule="evenodd" clip-rule="evenodd" d="M52.9031 33.3137C51.8517 33.3137 51.326 33.8631 51.326 34.924V60.0266H39.0282V49.9856C39.0282 48.9057 38.5025 48.11 37.4699 48.11H28.7957C27.7443 48.11 26.7117 48.9057 26.7117 49.9856V60.0266H14.658V35.966C14.658 34.6398 13.8695 34.1283 13.0621 34.1283C12.0107 34.1283 11.2222 34.6398 11.2222 35.966V62.1296C11.2222 62.9253 12.0107 63.721 13.0621 63.721H28.7957C29.5843 63.721 30.11 62.9253 30.11 62.1296V51.558H35.6299V62.1296C35.6299 62.9253 36.3997 63.721 37.4699 63.721H52.9219C53.9733 63.721 54.7618 62.9253 54.7618 62.1296V34.9051C54.7618 33.8441 53.9733 33.2947 52.9219 33.2947L52.9031 33.3137ZM62.347 34.6398C51.0631 22.4958 44.2477 15.1071 34.0152 4.27039C33.7712 4.00516 33.4895 3.72098 32.9638 3.72098C32.4381 3.72098 32.1753 3.98621 31.6496 4.27039L3.63697 34.3746C3.37412 34.6209 3.11127 35.1514 3.11127 35.7008C3.11127 36.2502 3.35534 36.4775 3.63697 36.7617C4.40676 37.8227 5.45817 37.8227 6.00265 36.7617L32.9826 8.21103L59.9813 37.2922C60.2254 37.5385 60.507 37.8227 61.0328 37.8227C61.5585 37.8227 62.0842 37.5574 62.347 37.2922C63.1168 36.4965 63.1168 35.1703 62.347 34.6398Z" fill="#2C514E"/>
</svg>
