<svg width="67" height="67" viewBox="0 0 67 67" fill="none" xmlns="http://www.w3.org/2000/svg">
<path fill-rule="evenodd" clip-rule="evenodd" d="M53.403 33.3137C52.3516 33.3137 51.8259 33.8631 51.8259 34.924V60.0267H39.5282V49.9856C39.5282 48.9057 39.0025 48.11 37.9698 48.11H29.2957C28.2443 48.11 27.2116 48.9057 27.2116 49.9856V60.0267H15.158V35.966C15.158 34.6399 14.3694 34.1283 13.5621 34.1283C12.5107 34.1283 11.7221 34.6399 11.7221 35.966V62.1296C11.7221 62.9253 12.5107 63.721 13.5621 63.721H29.2957C30.0842 63.721 30.6099 62.9253 30.6099 62.1296V51.5581H36.1298V62.1296C36.1298 62.9253 36.8996 63.721 37.9698 63.721H53.4218C54.4732 63.721 55.2618 62.9253 55.2618 62.1296V34.9051C55.2618 33.8442 54.4732 33.2947 53.4218 33.2947L53.403 33.3137ZM62.847 34.6399C51.5631 22.4959 44.7477 15.1072 34.5152 4.27042C34.2711 4.00519 33.9895 3.72101 33.4638 3.72101C32.9381 3.72101 32.6752 3.98624 32.1495 4.27042L4.13691 34.3746C3.87406 34.6209 3.61121 35.1514 3.61121 35.7008C3.61121 36.2502 3.85528 36.4776 4.13691 36.7617C4.90669 37.8227 5.95811 37.8227 6.50259 36.7617L33.4825 8.21106L60.4813 37.2922C60.7254 37.5385 61.007 37.8227 61.5327 37.8227C62.0584 37.8227 62.5841 37.5574 62.847 37.2922C63.6167 36.4965 63.6167 35.1703 62.847 34.6399Z" fill="#2C514E"/>
</svg>
