<svg width="18" height="18" viewBox="0 0 18 18" fill="none" xmlns="http://www.w3.org/2000/svg">
<path fill-rule="evenodd" clip-rule="evenodd" d="M13.1099 0.981087C15.8978 0.981087 18 3.2825 18 6.33439V12.1519C18 13.7138 17.4541 15.125 16.462 16.1262C15.5721 17.0232 14.4176 17.4984 13.1233 17.4984H4.87423C3.58242 17.4984 2.42874 17.0241 1.53795 16.1262C0.545861 15.125 0 13.7138 0 12.1519V6.33439C0 3.2825 2.10223 0.981087 4.89014 0.981087H13.1099ZM13.1099 2.25165H4.89014C2.78456 2.25165 1.25581 3.96861 1.25581 6.33439V12.1519C1.25581 13.3742 1.67107 14.466 2.42456 15.2258C3.07423 15.8823 3.92233 16.2278 4.87674 16.2278H13.1099C13.1115 16.2262 13.1182 16.2278 13.1233 16.2278C14.0785 16.2278 14.9258 15.8823 15.5754 15.2258C16.3298 14.466 16.7442 13.3742 16.7442 12.1519V6.33439C16.7442 3.96861 15.2154 2.25165 13.1099 2.25165ZM14.4293 6.17244C14.6478 6.44434 14.6068 6.84414 14.338 7.06607L10.6175 10.1256C10.147 10.5034 9.58437 10.6923 9.0226 10.6923C8.46251 10.6923 7.90409 10.5051 7.43693 10.1307L3.68205 7.06776C3.41163 6.84753 3.36977 6.44688 3.5866 6.17413C3.80512 5.90223 4.20028 5.85903 4.46986 6.07842L8.22139 9.13793C8.69274 9.51571 9.35665 9.51572 9.83135 9.13455L13.5452 6.08011C13.8148 5.85734 14.21 5.89969 14.4293 6.17244Z" fill="#FF6600"/>
</svg>
