<svg width="18" height="17" viewBox="0 0 18 17" fill="none" xmlns="http://www.w3.org/2000/svg">
<path fill-rule="evenodd" clip-rule="evenodd" d="M13.1099 -0.00756836C15.8978 -0.00756836 18 2.29385 18 5.34574V11.1632C18 12.7252 17.4541 14.1363 16.462 15.1375C15.5721 16.0346 14.4176 16.5098 13.1233 16.5098H4.87423C3.58242 16.5098 2.42874 16.0354 1.53795 15.1375C0.545861 14.1363 0 12.7252 0 11.1632V5.34574C0 2.29385 2.10223 -0.00756836 4.89014 -0.00756836H13.1099ZM13.1099 1.263H4.89014C2.78456 1.263 1.25581 2.97995 1.25581 5.34574V11.1632C1.25581 12.3855 1.67107 13.4773 2.42456 14.2371C3.07423 14.8936 3.92233 15.2392 4.87674 15.2392H13.1099C13.1115 15.2375 13.1182 15.2392 13.1233 15.2392C14.0785 15.2392 14.9258 14.8936 15.5754 14.2371C16.3298 13.4773 16.7442 12.3855 16.7442 11.1632V5.34574C16.7442 2.97995 15.2154 1.263 13.1099 1.263ZM14.4293 5.18378C14.6478 5.45568 14.6068 5.85549 14.338 6.07741L10.6175 9.13693C10.147 9.51471 9.58437 9.7036 9.0226 9.7036C8.46251 9.7036 7.90409 9.51641 7.43693 9.14201L3.68205 6.07911C3.41163 5.85888 3.36977 5.45823 3.5866 5.18548C3.80512 4.91358 4.20028 4.87038 4.46986 5.08976L8.22139 8.14928C8.69274 8.52706 9.35665 8.52706 9.83135 8.14589L13.5452 5.09146C13.8148 4.86868 14.21 4.91104 14.4293 5.18378Z" fill="#FF6600"/>
</svg>
