<svg width="47" height="79" viewBox="0 0 47 79" fill="none" xmlns="http://www.w3.org/2000/svg">
<g clip-path="url(#clip0_2586_59)">
<path d="M46.3488 30.7702C46.3488 30.7702 46.3488 30.676 46.3488 30.6222C46.3488 30.5549 46.3623 30.4877 46.3488 30.4204C45.7555 26.7341 44.8521 25.5771 42.735 25.1466C42.2091 15.6754 35.2782 8.00693 26.055 6.86339C25.9066 4.22651 25.5156 1.18603 23.5064 0.365372C21.74 -0.361114 19.3263 0.190477 17.4924 0.365372C14.7821 0.620988 12.1527 1.10531 9.52321 1.85871C8.98384 2.00669 8.79506 2.50447 8.86248 3.0157C9.05126 4.32069 9.3614 5.51805 9.80638 6.75576C9.99516 7.26699 10.4267 7.50916 10.966 7.41498C13.5955 6.95757 16.2384 6.5136 18.8678 6.05618C18.9218 6.47324 18.9892 6.87684 19.0431 7.2939C10.9256 9.39264 4.91159 16.9535 4.1295 25.3484C1.35173 25.9 0.758425 27.3126 0.502223 31.1738C0.475255 31.4832 0.583129 31.7119 0.758425 31.8599C0.906752 32.0348 1.13598 32.129 1.44612 32.1155C2.3226 32.0617 3.19908 32.0214 4.06208 31.981C4.06208 32.0348 4.04859 32.0886 4.06208 32.1424C5.61277 42.7438 7.14998 53.3585 8.70067 63.9733C9.25353 67.7537 9.7929 71.5341 10.3727 75.3146C10.575 76.6734 10.4401 77.7496 11.6133 78.4761C13.1775 79.4313 17.0879 78.7856 18.8409 78.799C22.8322 78.8259 26.837 78.7587 30.8284 78.6779C32.0959 78.651 35.2243 79.1757 36.33 78.4223C37.9751 77.3057 37.8402 72.5566 38.1099 70.8884C40.2135 57.852 41.872 44.7483 42.8429 31.5774C43.7059 31.5774 44.5824 31.5908 45.4454 31.6043C45.9713 31.6043 46.2544 31.2545 46.3218 30.8509C46.3218 30.824 46.3218 30.7971 46.3353 30.7702H46.3488ZM40.8472 24.9179C40.2269 24.8776 39.5527 24.8507 38.7841 24.8238C38.7437 22.4963 37.9481 21.0433 35.4805 20.3303C35.2243 20.2496 34.9276 20.2092 34.6579 20.1419C36.1412 16.6575 32.2847 15.2987 28.563 14.774C28.7788 13.469 28.5361 12.1371 27.7405 11.0205C27.4169 10.5631 26.8505 9.94423 26.2168 9.6079C26.1898 9.35228 26.1763 9.06976 26.1493 8.76033C34.186 9.93078 40.2539 16.6037 40.8203 24.9179H40.8472ZM10.2379 24.7968C9.45579 21.7833 16.0496 21.7295 17.5059 21.6891C19.596 21.6218 21.6726 21.6756 23.7626 21.7295C26.3921 21.7967 36.0468 20.8012 36.8289 24.7699C31.1925 24.5681 25.5426 24.4471 19.9061 24.5412C16.6834 24.595 13.4606 24.6489 10.2514 24.8103L10.2379 24.7968ZM32.7027 19.8191C28.9406 19.3886 24.5852 19.8191 21.0927 19.7787C19.5151 19.7653 16.7778 19.6307 14.2292 19.9132C11.6672 15.0162 34.9411 14.9624 32.7162 19.8191H32.7027ZM24.3829 9.94423C24.3829 9.94423 24.4099 10.0115 24.4234 10.0519C24.3964 10.0922 24.3694 10.1326 24.329 10.1595C23.8031 10.6976 23.439 11.0071 22.6839 11.2223C22.3198 11.3299 21.9422 11.3972 21.5647 11.4779C21.4433 10.5765 21.3085 9.66171 21.1871 8.76033C21.7669 8.66615 22.3603 8.61234 22.9671 8.58543C23.3851 8.57198 23.8031 8.58543 24.2076 8.59889C24.2615 9.04285 24.329 9.50027 24.3829 9.94423ZM23.1828 13.0385C23.9649 12.8367 24.747 12.5138 25.3268 11.9353C25.4482 11.8143 25.5426 11.6663 25.6369 11.5183C25.7853 11.6394 25.9336 11.747 26.0684 11.895C26.7292 12.6753 26.8505 13.617 26.6752 14.5588C25.3942 14.4511 24.2615 14.4377 23.5334 14.4242C22.7648 14.4242 21.5512 14.4242 20.2028 14.5184C19.7039 13.617 22.7108 13.1462 23.1693 13.0251L23.1828 13.0385ZM20.6073 4.71084C20.5264 4.1727 19.8926 3.9709 19.4477 4.05162C16.7643 4.50904 14.0809 4.96645 11.411 5.42387C11.2088 4.76465 11.0335 4.10543 10.8986 3.43276C14.1888 2.55829 17.6273 2.00669 21.0388 1.95288C23.2098 1.92597 23.4255 2.6121 23.6817 4.56285C23.7761 5.27588 23.8705 6.00237 23.9649 6.7154C23.6278 6.7154 23.3042 6.6885 22.9671 6.70195C22.2794 6.72886 21.5917 6.79612 20.9309 6.90375C20.823 6.17726 20.7287 5.43732 20.6208 4.71084H20.6073ZM19.3398 9.15048C19.4746 10.1595 19.6229 11.155 19.7578 12.1641C18.8543 12.756 18.1397 13.7112 18.3015 14.7202C14.4585 15.218 10.5211 16.5902 12.2336 20.2361C9.55018 20.8415 7.58148 22.1465 8.29614 24.9179C7.55451 24.9717 6.82636 25.0121 6.08472 25.0794C6.89378 17.7203 12.247 11.1012 19.3533 9.16393L19.3398 9.15048ZM4.15647 27.1781C4.74977 26.909 5.82852 26.9898 6.48925 26.9359C8.17478 26.788 9.86032 26.6938 11.5459 26.6131C14.7012 26.4516 17.8835 26.4651 21.0388 26.4113C24.8279 26.3574 28.5765 26.4516 32.3521 26.5996C34.8602 26.6938 37.3818 26.64 39.9033 26.788C40.7124 26.8418 43.0182 26.6669 43.571 27.1512C43.9621 27.4875 44.2048 28.7253 44.3666 29.7208C30.3295 29.5863 16.4946 29.3845 2.47093 30.1917C2.5788 28.8463 2.82152 27.797 4.16995 27.1781H4.15647ZM35.9255 72.6777C35.7367 73.7809 35.7502 75.4895 35.3321 76.6868C35.2108 76.7003 35.0625 76.7137 34.8332 76.6868C34.132 76.6196 33.35 76.7406 32.6353 76.7541C28.4821 76.8617 24.3155 76.929 20.1623 76.929C18.2341 76.929 16.2923 76.929 14.3641 76.8483C13.8517 76.8214 13.0966 76.9155 12.6111 76.7406C12.5167 76.7003 12.4493 76.6868 12.3819 76.6734C12.0178 75.7854 12.0717 74.0365 11.9639 73.2562C11.6672 71.2382 11.3706 69.2336 11.0739 67.2156C9.34792 55.4438 7.6489 43.672 5.92291 31.9003C17.6408 31.3621 29.2507 31.4563 40.9686 31.5774C39.9573 45.3537 38.2043 59.0628 35.9255 72.6911V72.6777Z" fill="#2C514E"/>
<path d="M12.5252 49.3447C12.6466 55.0202 18.1073 60.4268 23.8916 60.0368C29.3254 59.6602 34.7727 54.6437 34.3007 49.0085C33.8019 43.1447 28.2063 38.9755 22.5568 39.0562C17.0421 39.7152 12.3904 43.4137 12.5252 49.3447ZM32.1704 47.7174C33.4917 52.4246 29.5142 56.8628 25.0782 57.9253C20.2781 59.0684 15.2354 55.0202 14.5477 50.3265C13.7926 45.1352 17.6489 41.5174 22.5568 40.939C26.7366 40.8853 30.9973 43.5482 32.1704 47.7174Z" fill="#2C514E"/>
</g>
<defs>
<clipPath id="clip0_2586_59">
<rect width="45.8567" height="79" fill="white" transform="translate(0.498108)"/>
</clipPath>
</defs>
</svg>
