<svg width="47" height="79" viewBox="0 0 47 79" fill="none" xmlns="http://www.w3.org/2000/svg">
<g clip-path="url(#clip0_2568_273)">
<path d="M46.6887 30.7702C46.6887 30.7702 46.6887 30.676 46.6887 30.6222C46.6887 30.5549 46.7022 30.4877 46.6887 30.4204C46.0954 26.7341 45.192 25.5771 43.0749 25.1466C42.549 15.6754 35.6181 8.00694 26.3949 6.86339C26.2465 4.22651 25.8555 1.18603 23.8463 0.365372C22.0799 -0.361114 19.6662 0.190477 17.8323 0.365372C15.122 0.620988 12.4926 1.10531 9.86312 1.85871C9.32375 2.00669 9.13497 2.50447 9.20239 3.0157C9.39117 4.32069 9.70131 5.51805 10.1463 6.75576C10.3351 7.26699 10.7666 7.50916 11.3059 7.41498C13.9354 6.95756 16.5783 6.5136 19.2077 6.05618C19.2617 6.47324 19.3291 6.87684 19.383 7.2939C11.2655 9.39264 5.25149 16.9535 4.4694 25.3484C1.69164 25.9 1.09833 27.3126 0.842128 31.1738C0.815159 31.4832 0.923034 31.7119 1.09833 31.8599C1.24666 32.0348 1.47589 32.129 1.78603 32.1155C2.66251 32.0617 3.53899 32.0214 4.40198 31.981C4.40198 32.0348 4.3885 32.0886 4.40198 32.1424C5.95267 42.7438 7.48988 53.3585 9.04058 63.9733C9.59343 67.7537 10.1328 71.5341 10.7126 75.3146C10.9149 76.6734 10.7801 77.7496 11.9532 78.4761C13.5174 79.4313 17.4278 78.7856 19.1808 78.799C23.1721 78.8259 27.1769 78.7587 31.1683 78.6779C32.4358 78.651 35.5642 79.1757 36.6699 78.4223C38.315 77.3057 38.1801 72.5566 38.4498 70.8884C40.5534 57.852 42.2119 44.7483 43.1828 31.5774C44.0458 31.5774 44.9223 31.5908 45.7853 31.6043C46.3112 31.6043 46.5943 31.2545 46.6617 30.8509C46.6617 30.824 46.6618 30.7971 46.6752 30.7702H46.6887ZM41.1871 24.9179C40.5668 24.8776 39.8926 24.8507 39.124 24.8238C39.0836 22.4963 38.288 21.0433 35.8204 20.3303C35.5642 20.2496 35.2675 20.2092 34.9978 20.142C36.4811 16.6575 32.6246 15.2987 28.9029 14.774C29.1187 13.469 28.876 12.1371 28.0804 11.0205C27.7568 10.5631 27.1904 9.94423 26.5567 9.6079C26.5297 9.35228 26.5162 9.06976 26.4893 8.76033C34.5259 9.93078 40.5938 16.6037 41.1602 24.9179H41.1871ZM10.5778 24.7968C9.7957 21.7833 16.3895 21.7295 17.8458 21.6891C19.9359 21.6218 22.0125 21.6756 24.1025 21.7295C26.732 21.7967 36.3867 20.8012 37.1688 24.7699C31.5324 24.5681 25.8825 24.4471 20.246 24.5412C17.0233 24.595 13.8005 24.6489 10.5913 24.8103L10.5778 24.7968ZM33.0426 19.8191C29.2805 19.3886 24.9251 19.8191 21.4326 19.7787C19.855 19.7653 17.1177 19.6307 14.5691 19.9132C12.0071 15.0162 35.281 14.9624 33.0561 19.8191H33.0426ZM24.7228 9.94423C24.7228 9.94423 24.7498 10.0115 24.7633 10.0519C24.7363 10.0922 24.7093 10.1326 24.6689 10.1595C24.143 10.6976 23.7789 11.0071 23.0238 11.2223C22.6597 11.3299 22.2822 11.3972 21.9046 11.4779C21.7832 10.5765 21.6484 9.66171 21.527 8.76033C22.1069 8.66615 22.7002 8.61234 23.307 8.58543C23.725 8.57198 24.143 8.58543 24.5475 8.59889C24.6014 9.04285 24.6689 9.50027 24.7228 9.94423ZM23.5227 13.0385C24.3048 12.8367 25.0869 12.5138 25.6667 11.9353C25.7881 11.8143 25.8825 11.6663 25.9768 11.5183C26.1252 11.6394 26.2735 11.747 26.4083 11.895C27.0691 12.6753 27.1904 13.617 27.0151 14.5588C25.7341 14.4511 24.6014 14.4377 23.8733 14.4242C23.1047 14.4242 21.8911 14.4242 20.5427 14.5184C20.0438 13.617 23.0508 13.1462 23.5092 13.0251L23.5227 13.0385ZM20.9472 4.71084C20.8663 4.1727 20.2325 3.9709 19.7876 4.05162C17.1042 4.50904 14.4208 4.96645 11.7509 5.42387C11.5487 4.76465 11.3734 4.10543 11.2385 3.43276C14.5287 2.55829 17.9672 2.00669 21.3787 1.95288C23.5497 1.92597 23.7654 2.6121 24.0216 4.56285C24.116 5.27588 24.2104 6.00237 24.3048 6.7154C23.9677 6.7154 23.6441 6.6885 23.307 6.70195C22.6193 6.72886 21.9316 6.79612 21.2708 6.90375C21.163 6.17726 21.0686 5.43732 20.9607 4.71084H20.9472ZM19.6797 9.15048C19.8145 10.1595 19.9629 11.155 20.0977 12.1641C19.1942 12.756 18.4796 13.7112 18.6414 14.7202C14.7984 15.218 10.861 16.5902 12.5735 20.2361C9.89009 20.8415 7.92138 22.1465 8.63605 24.9179C7.89441 24.9717 7.16626 25.0121 6.42462 25.0794C7.23368 17.7203 12.5869 11.1012 19.6932 9.16393L19.6797 9.15048ZM4.49637 27.1781C5.08968 26.909 6.16842 26.9898 6.82915 26.9359C8.51469 26.788 10.2002 26.6938 11.8858 26.6131C15.0411 26.4516 18.2234 26.4651 21.3787 26.4113C25.1678 26.3574 28.9164 26.4516 32.692 26.5996C35.2001 26.6938 37.7217 26.64 40.2432 26.788C41.0523 26.8418 43.3581 26.6669 43.911 27.1512C44.302 27.4875 44.5447 28.7253 44.7065 29.7208C30.6694 29.5863 16.8345 29.3845 2.81083 30.1917C2.91871 28.8463 3.16143 27.797 4.50986 27.1781H4.49637ZM36.2654 72.6777C36.0766 73.7809 36.0901 75.4895 35.6721 76.6868C35.5507 76.7003 35.4024 76.7137 35.1731 76.6868C34.4719 76.6196 33.6899 76.7406 32.9752 76.7541C28.822 76.8617 24.6554 76.929 20.5022 76.929C18.574 76.929 16.6322 76.929 14.704 76.8483C14.1916 76.8214 13.4365 76.9155 12.951 76.7406C12.8566 76.7003 12.7892 76.6868 12.7218 76.6734C12.3577 75.7854 12.4116 74.0365 12.3038 73.2562C12.0071 71.2382 11.7105 69.2336 11.4138 67.2156C9.68782 55.4438 7.9888 43.672 6.26281 31.9003C17.9807 31.3621 29.5906 31.4563 41.3085 31.5774C40.2972 45.3537 38.5442 59.0628 36.2654 72.6911V72.6777Z" fill="#2C514E"/>
<path d="M12.8651 49.3448C12.9865 55.0203 18.4472 60.4268 24.2315 60.0368C29.6653 59.6602 35.1125 54.6437 34.6406 49.0085C34.1417 43.1447 28.5462 38.9755 22.8967 39.0562C17.382 39.7152 12.7303 43.4137 12.8651 49.3448ZM32.5103 47.7174C33.8316 52.4246 29.8541 56.8628 25.4181 57.9253C20.618 59.0685 15.5752 55.0203 14.8876 50.3265C14.1325 45.1352 17.9888 41.5174 22.8967 40.9391C27.0765 40.8853 31.3372 43.5482 32.5103 47.7174Z" fill="#2C514E"/>
</g>
<defs>
<clipPath id="clip0_2568_273">
<rect width="45.8567" height="79" fill="white" transform="translate(0.838013)"/>
</clipPath>
</defs>
</svg>
