<svg width="68" height="68" viewBox="0 0 68 68" fill="none" xmlns="http://www.w3.org/2000/svg">
<g clip-path="url(#clip0_2568_189)">
<path d="M57.5159 67.5367H10.7022C9.86981 67.5367 9.19238 66.8652 9.19238 66.0401V40.0977C9.19238 39.2726 9.86981 38.6011 10.7022 38.6011H57.5159C58.3483 38.6011 59.0257 39.2726 59.0257 40.0977V66.0401C59.0257 66.8652 58.3483 67.5367 57.5159 67.5367ZM12.212 64.5392H56.006V41.5899H12.212V64.5392Z" fill="#2C514E"/>
<path d="M65.9948 41.5943H2.22321C1.39081 41.5943 0.713379 40.9228 0.713379 40.0977V28.7702C0.713379 27.9451 1.39081 27.2736 2.22321 27.2736H65.9948C66.8272 27.2736 67.5047 27.9451 67.5047 28.7702V40.0977C67.5047 40.9228 66.8272 41.5943 65.9948 41.5943ZM3.73304 38.5968H64.485V30.2624H3.73304V38.5968Z" fill="#2C514E"/>
<path d="M29.7627 65.0401V29.7701H38.4511V65.0401H29.7627Z" fill="#B8F05F" stroke="#2C514E" stroke-width="2"/>
<path d="M34.1113 26.2466C33.9386 26.2466 33.7659 26.2158 33.5977 26.1588C22.2496 22.1035 16.3209 16.4375 15.4664 8.84042C15.0768 5.36007 16.8877 2.3186 20.0844 1.08095C23.0421 -0.0601459 27.2484 0.440182 29.9803 4.13558C34.2352 9.88496 35.5591 24.0214 35.6122 24.6183C35.6565 25.1274 35.4396 25.6233 35.0322 25.9393C34.7621 26.1456 34.4389 26.2509 34.1113 26.2509V26.2466ZM23.0333 3.52992C22.3735 3.52992 21.7448 3.65281 21.1825 3.86786C19.2432 4.61836 18.2292 6.35195 18.4683 8.50687C19.1236 14.3616 23.662 18.9391 32.3225 22.4634C31.769 18.2545 30.3389 9.67869 27.545 5.90428C26.292 4.21019 24.5874 3.53431 23.0288 3.53431L23.0333 3.52992Z" fill="#2C514E"/>
<path d="M28.2091 27.7826C19.5131 27.7826 10.2682 20.8307 9.78114 20.4577C9.12142 19.9529 8.99745 19.0137 9.50663 18.3598C10.0158 17.7059 10.9633 17.5786 11.623 18.0833C11.7603 18.1842 25.2868 28.3532 33.323 23.4728C34.0314 23.0427 34.9657 23.2621 35.3996 23.9687C35.8379 24.6753 35.6121 25.597 34.8993 26.0271C32.8271 27.2823 30.538 27.7826 28.2135 27.7826H28.2091Z" fill="#2C514E"/>
<path d="M34.1113 24.2716C33.2878 24.2716 32.6192 23.6177 32.6015 22.8057C32.5927 22.3888 32.4731 12.5841 38.6187 8.52444C42.3512 6.05792 46.2033 7.29996 48.3684 9.61726C50.5203 11.9214 50.8302 15.0375 49.1211 17.1968C45.9465 21.2082 39.4954 24.2496 34.1158 24.276H34.1069L34.1113 24.2716ZM42.887 10.179C42.0767 10.179 41.1956 10.4204 40.2924 11.0129C36.7724 13.339 35.9045 18.5398 35.6876 21.1643C39.7832 20.6245 44.4721 18.215 46.7435 15.3447C47.6511 14.1992 47.0977 12.6631 46.1502 11.6449C45.4019 10.8417 44.2374 10.1746 42.8825 10.1746L42.887 10.179Z" fill="#2C514E"/>
<path d="M42.3333 27.0629C39.3756 27.0629 36.2807 26.1939 33.2212 23.9907C32.5482 23.5035 32.3976 22.5687 32.8847 21.8972C33.3762 21.2301 34.3192 21.0809 34.9967 21.5636C39.4465 24.7675 44.3479 24.9255 49.5681 22.0333C53.6238 19.7862 56.3159 16.5296 56.3424 16.4945C56.8693 15.8538 57.8213 15.7528 58.4677 16.2751C59.1141 16.7974 59.216 17.741 58.6891 18.3817C55.6827 22.0552 49.4131 27.0585 42.3333 27.0585V27.0629Z" fill="#2C514E"/>
</g>
<defs>
<clipPath id="clip0_2568_189">
<rect width="66.7913" height="67" fill="white" transform="translate(0.713379 0.536743)"/>
</clipPath>
</defs>
</svg>
