<svg width="67" height="68" viewBox="0 0 67 68" fill="none" xmlns="http://www.w3.org/2000/svg">
<g clip-path="url(#clip0_2568_379)">
<path d="M57.0159 67.8391H10.2022C9.36981 67.8391 8.69238 67.1676 8.69238 66.3425V40.4C8.69238 39.5749 9.36981 38.9034 10.2022 38.9034H57.0159C57.8483 38.9034 58.5257 39.5749 58.5257 40.4V66.3425C58.5257 67.1676 57.8483 67.8391 57.0159 67.8391ZM11.712 64.8415H55.506V41.8922H11.712V64.8415Z" fill="#2C514E"/>
<path d="M65.4948 41.8966H1.72321C0.890811 41.8966 0.213379 41.2251 0.213379 40.4V29.0724C0.213379 28.2473 0.890811 27.5758 1.72321 27.5758H65.4948C66.3272 27.5758 67.0047 28.2473 67.0047 29.0724V40.4C67.0047 41.2251 66.3272 41.8966 65.4948 41.8966ZM3.23304 38.899H63.985V30.5646H3.23304V38.899Z" fill="#2C514E"/>
<path d="M29.2626 65.3425V30.0724H37.9509V65.3425H29.2626Z" fill="#B8F05F" stroke="#2C514E" stroke-width="2"/>
<path d="M33.6113 26.5489C33.4386 26.5489 33.2659 26.5181 33.0977 26.4611C21.7496 22.4058 15.8209 16.7398 14.9664 9.14272C14.5768 5.66238 16.3877 2.62091 19.5844 1.38326C22.5421 0.242161 26.7484 0.742489 29.4803 4.43789C33.7352 10.1873 35.0591 24.3237 35.1122 24.9206C35.1565 25.4297 34.9396 25.9256 34.5322 26.2416C34.2621 26.4479 33.9389 26.5532 33.6113 26.5532V26.5489ZM22.5333 3.83223C21.8735 3.83223 21.2448 3.95512 20.6825 4.17017C18.7432 4.92066 17.7292 6.65425 17.9683 8.80917C18.6236 14.6639 23.162 19.2414 31.8225 22.7657C31.269 18.5568 29.8389 9.98099 27.045 6.20659C25.792 4.5125 24.0874 3.83662 22.5288 3.83662L22.5333 3.83223Z" fill="#2C514E"/>
<path d="M27.7092 28.085C19.0133 28.085 9.76831 21.133 9.28126 20.76C8.62154 20.2553 8.49757 19.3161 9.00675 18.6621C9.51593 18.0082 10.4635 17.8809 11.1232 18.3856C11.2604 18.4866 24.7869 28.6555 32.8231 23.7751C33.5316 23.345 34.4658 23.5645 34.8997 24.2711C35.338 24.9777 35.1122 25.8993 34.3994 26.3294C32.3272 27.5846 30.0381 28.085 27.7136 28.085H27.7092Z" fill="#2C514E"/>
<path d="M33.6112 24.5739C32.7877 24.5739 32.1191 23.9199 32.1014 23.108C32.0925 22.6911 31.973 12.8864 38.1186 8.82672C41.8511 6.36019 45.7032 7.60223 47.8683 9.91954C50.0201 12.2237 50.3301 15.3398 48.621 17.4991C45.4464 21.5105 38.9953 24.5519 33.6157 24.5783H33.6068L33.6112 24.5739ZM42.3868 10.4813C41.5766 10.4813 40.6955 10.7227 39.7922 11.3152C36.2722 13.6413 35.4044 18.842 35.1875 21.4666C39.2831 20.9267 43.9719 18.5173 46.2433 15.647C47.151 14.5015 46.5976 12.9654 45.65 11.9472C44.9018 11.144 43.7373 10.4769 42.3824 10.4769L42.3868 10.4813Z" fill="#2C514E"/>
<path d="M41.8334 27.3652C38.8758 27.3652 35.7808 26.4962 32.7213 24.293C32.0483 23.8058 31.8978 22.871 32.3848 22.1995C32.8763 21.5324 33.8194 21.3832 34.4968 21.866C38.9466 25.0698 43.848 25.2278 49.0682 22.3356C53.124 20.0885 55.816 16.832 55.8426 16.7969C56.3694 16.1561 57.3214 16.0552 57.9678 16.5774C58.6143 17.0997 58.7161 18.0433 58.1892 18.6841C55.1828 22.3575 48.9133 27.3608 41.8334 27.3608V27.3652Z" fill="#2C514E"/>
</g>
<defs>
<clipPath id="clip0_2568_379">
<rect width="66.7913" height="67" fill="white" transform="translate(0.213379 0.83905)"/>
</clipPath>
</defs>
</svg>
