<svg width="68" height="68" viewBox="0 0 68 68" fill="none" xmlns="http://www.w3.org/2000/svg">
<g clip-path="url(#clip0_2568_284)">
<path d="M57.5158 67.5367H10.7022C9.86975 67.5367 9.19232 66.8652 9.19232 66.0401V40.0977C9.19232 39.2726 9.86975 38.6011 10.7022 38.6011H57.5158C58.3482 38.6011 59.0256 39.2726 59.0256 40.0977V66.0401C59.0256 66.8652 58.3482 67.5367 57.5158 67.5367ZM12.212 64.5392H56.006V41.5899H12.212V64.5392Z" fill="#2C514E"/>
<path d="M65.9948 41.5943H2.22321C1.39081 41.5943 0.713379 40.9228 0.713379 40.0977V28.7702C0.713379 27.9451 1.39081 27.2736 2.22321 27.2736H65.9948C66.8272 27.2736 67.5047 27.9451 67.5047 28.7702V40.0977C67.5047 40.9228 66.8272 41.5943 65.9948 41.5943ZM3.73304 38.5968H64.485V30.2624H3.73304V38.5968Z" fill="#2C514E"/>
<path d="M29.7626 65.0401V29.7701H38.451V65.0401H29.7626Z" fill="#B8F05F" stroke="#2C514E" stroke-width="2"/>
<path d="M34.1112 26.2466C33.9385 26.2466 33.7659 26.2158 33.5976 26.1588C22.2495 22.1035 16.3209 16.4375 15.4663 8.84042C15.0767 5.36007 16.8876 2.3186 20.0844 1.08095C23.0421 -0.0601459 27.2483 0.440182 29.9802 4.13558C34.2352 9.88496 35.5591 24.0214 35.6122 24.6183C35.6565 25.1274 35.4395 25.6233 35.0322 25.9393C34.7621 26.1456 34.4389 26.2509 34.1112 26.2509V26.2466ZM23.0332 3.52992C22.3735 3.52992 21.7447 3.65281 21.1824 3.86786C19.2431 4.61836 18.2292 6.35195 18.4683 8.50687C19.1236 14.3616 23.6619 18.9391 32.3224 22.4634C31.769 18.2545 30.3388 9.67869 27.545 5.90428C26.292 4.21019 24.5873 3.53431 23.0288 3.53431L23.0332 3.52992Z" fill="#2C514E"/>
<path d="M28.2091 27.7826C19.5132 27.7826 10.2682 20.8307 9.7812 20.4577C9.12148 19.9529 8.99751 19.0137 9.50669 18.3598C10.0159 17.7059 10.9634 17.5786 11.6231 18.0833C11.7604 18.1842 25.2869 28.3532 33.3231 23.4728C34.0315 23.0427 34.9657 23.2621 35.3996 23.9687C35.838 24.6753 35.6122 25.597 34.8993 26.0271C32.8272 27.2823 30.5381 27.7826 28.2136 27.7826H28.2091Z" fill="#2C514E"/>
<path d="M34.1112 24.2716C33.2877 24.2716 32.6191 23.6177 32.6014 22.8057C32.5925 22.3888 32.473 12.5841 38.6186 8.52444C42.3511 6.05792 46.2032 7.29996 48.3683 9.61726C50.5201 11.9214 50.8301 15.0375 49.121 17.1968C45.9464 21.2082 39.4953 24.2496 34.1157 24.276H34.1068L34.1112 24.2716ZM42.8868 10.179C42.0766 10.179 41.1955 10.4204 40.2922 11.0129C36.7722 13.339 35.9044 18.5398 35.6875 21.1643C39.7831 20.6245 44.4719 18.215 46.7433 15.3447C47.651 14.1992 47.0976 12.6631 46.15 11.6449C45.4018 10.8417 44.2373 10.1746 42.8824 10.1746L42.8868 10.179Z" fill="#2C514E"/>
<path d="M42.3334 27.0629C39.3757 27.0629 36.2808 26.1939 33.2212 23.9907C32.5482 23.5035 32.3977 22.5687 32.8847 21.8972C33.3762 21.2301 34.3193 21.0809 34.9967 21.5636C39.4465 24.7675 44.348 24.9255 49.5682 22.0333C53.6239 19.7862 56.3159 16.5296 56.3425 16.4945C56.8694 15.8538 57.8213 15.7528 58.4678 16.2751C59.1142 16.7974 59.216 17.741 58.6892 18.3817C55.6828 22.0552 49.4132 27.0585 42.3334 27.0585V27.0629Z" fill="#2C514E"/>
</g>
<defs>
<clipPath id="clip0_2568_284">
<rect width="66.7913" height="67" fill="white" transform="translate(0.713379 0.536743)"/>
</clipPath>
</defs>
</svg>
